<svg xmlns="http://www.w3.org/2000/svg" width="164" height="164" viewBox="0 0 164 164">
    <defs>
        <clipPath id="ijgoa">
            <path fill="#fff"
                d="M0 164V0h164v164zm4.993-82c0 42.53 34.477 77.007 77.007 77.007 42.53 0 77.007-34.477 77.007-77.007 0-42.53-34.477-77.008-77.007-77.008C39.47 4.992 4.993 39.47 4.993 82z" />
        </clipPath>
        <clipPath id="ijgob">
            <path
                d="M82 6.998C123.422 6.998 157 40.578 157 82S123.422 157 82 157c-41.422 0-75.002-33.58-75.002-75.001C6.998 40.577 40.578 6.998 82 6.998z" />
        </clipPath>
    </defs>
    <g>
        <g>
            <path fill="#fff"
                d="M82 4.992c42.53 0 77.007 34.478 77.007 77.008 0 42.53-34.477 77.007-77.007 77.007-42.53 0-77.007-34.477-77.007-77.007C4.993 39.47 39.47 4.992 82 4.992z" />
            <path fill="none" stroke="#a1859e" stroke-linecap="round" stroke-linejoin="round" stroke-miterlimit="20"
                stroke-width="10"
                d="M82 4.992c42.53 0 77.007 34.478 77.007 77.008 0 42.53-34.477 77.007-77.007 77.007-42.53 0-77.007-34.477-77.007-77.007C4.993 39.47 39.47 4.992 82 4.992z"
                clip-path="url(&quot;#ijgoa&quot;)" />
        </g>
        <g>
            <path fill="#fff"
                d="M82 6.998C123.422 6.998 157 40.578 157 82S123.422 157 82 157c-41.422 0-75.002-33.58-75.002-75.001C6.998 40.577 40.578 6.998 82 6.998z" />
        </g>
        <g clip-path="url(#ijgob)">
            <path fill="#5b4b59"
                d="M76.886 17.412c-5.458 0-4.618 2.447-7.557 2.869-2.939.42.595-1.185-8.221.498-8.817 1.686-11.931 13.053-12.35 17.265-.42 4.21-.525 16.046-.246 22.362.84 3.789-2.099 3.789-2.099 3.789-5.282-.34-2.907 16.17-2.907 16.17.759 4.068-.274 6.095 7.549 9.246 3.726 10.645 13.46 16.275 13.46 16.275s.049 6.57.196 11.432c-.796-.399 2.718 12.425-21.581 16.024-24.3 3.593-28.953 11.488-33.534 15.881-4.58 4.397-4.403 25.7-4.403 25.7l156.822.085s-1.164-21.388-5.746-25.785c-4.58-4.393-9.571-12.288-33.87-15.881-23.624-3.429-19.74-16.072-19.907-16.83.044-1.916.3-10.04.3-10.04s8.25-6.53 11.975-17.177c5.863-3.712 8.097-4.23 9.066-8.509 0 0 1.725-16.68-3.811-16.595 0 0-2.625.847-1.784-2.944.84-3.79.56-15.625.14-19.835-.42-4.21.212-16.246-8.604-17.93-6.018-1.124-6.803-.012-9.742-.433-2.938-.421-6.437-8.056-11.895-8.056z" />
        </g>
    </g>
</svg>